<?xml version="1.0" standalone="no"?>
<!DOCTYPE svg PUBLIC "-//W3C//DTD SVG 20010904//EN"
 "http://www.w3.org/TR/2001/REC-SVG-20010904/DTD/svg10.dtd">
<svg version="1.0" xmlns="http://www.w3.org/2000/svg"
 width="1280.000000pt" height="1280.000000pt" viewBox="0 0 1280.000000 1280.000000"
 preserveAspectRatio="xMidYMid meet">
<metadata>
Created by potrace 1.14, written by Peter Selinger 2001-2017
</metadata>
<g transform="translate(0.000000,1280.000000) scale(0.100000,-0.100000)"
fill="#000000" stroke="none">
<path d="M4890 12600 c-13 -9 -13 -10 0 -10 8 0 22 5 30 10 13 9 13 10 0 10
-8 0 -22 -5 -30 -10z"/>
<path d="M4800 12576 c6 -5 22 -5 42 1 l33 10 -42 -1 c-25 -1 -38 -5 -33 -10z"/>
<path d="M4879 12576 c-25 -7 -72 -12 -105 -11 -32 1 -63 -1 -69 -5 -9 -7 -57
-21 -80 -25 -39 -5 -94 -20 -115 -30 -14 -7 -40 -15 -59 -19 -30 -5 -194 -61
-261 -89 -14 -5 -30 -11 -36 -12 -39 -9 -374 -155 -549 -240 -648 -314 -1226
-731 -1740 -1256 -99 -101 -213 -225 -254 -274 -41 -50 -90 -107 -110 -127
-35 -37 -35 -37 -15 -60 l19 -23 -21 17 c-20 17 -21 17 -41 -6 -12 -13 -19
-27 -16 -30 3 -3 1 -12 -6 -20 -6 -8 -10 -18 -9 -22 3 -9 -5 -14 -18 -14 -4 0
1 12 10 28 16 26 16 26 -9 -3 -34 -40 -66 -95 -56 -95 5 0 12 7 15 16 4 9 9
14 13 11 3 -4 -2 -18 -11 -32 -12 -18 -13 -24 -4 -23 10 2 13 -72 13 -369 0
-205 4 -375 8 -379 4 -4 7 -14 6 -23 0 -12 -3 -11 -10 4 -8 18 -9 17 -5 -5 3
-15 -4 -42 -20 -70 l-25 -45 30 34 c17 19 28 38 25 43 -3 4 -1 8 4 8 11 0 40
41 44 62 2 7 6 15 10 18 3 3 39 55 80 115 341 510 814 1016 1318 1408 247 193
673 461 945 595 114 56 277 132 284 132 4 0 29 11 57 23 43 21 92 41 288 118
27 10 55 19 62 19 8 0 14 4 14 10 0 5 7 6 17 3 9 -4 14 -2 11 3 -3 5 1 16 10
24 14 13 15 12 9 -4 -6 -14 -4 -17 9 -12 8 3 18 6 20 6 3 0 2 5 -2 12 -4 7 -3
8 5 4 17 -11 83 13 74 27 -4 8 -1 7 9 -1 11 -9 18 -10 23 -2 3 6 10 8 14 6 9
-6 110 30 128 46 7 5 22 7 35 3 22 -6 22 -5 -2 10 -14 9 -18 14 -10 12 62 -18
65 -18 50 -8 -8 6 -10 11 -5 12 6 0 -8 6 -30 13 -48 14 -52 37 -7 50 33 9 44
26 17 26 -13 0 -15 28 -15 194 0 126 4 197 11 201 5 4 30 7 55 8 25 0 40 4 33
8 -8 5 -6 8 7 12 18 4 18 5 -1 5 -11 0 -41 -5 -66 -12z m-74 -516 c7 -11 -63
-45 -72 -36 -3 3 5 9 18 14 47 18 54 22 27 18 -15 -1 -25 1 -22 5 7 12 41 11
49 -1z"/>
<path d="M5000 12580 c0 -5 5 -10 11 -10 5 0 7 5 4 10 -3 6 -8 10 -11 10 -2 0
-4 -4 -4 -10z"/>
<path d="M4960 12132 c0 -7 -7 -12 -15 -12 -8 0 -15 -4 -15 -10 0 -5 4 -10 9
-10 13 0 35 29 27 37 -3 3 -6 1 -6 -5z"/>
<path d="M4897 12123 c-13 -12 -7 -33 8 -33 8 0 15 9 15 20 0 20 -11 26 -23
13z"/>
<path d="M1307 10223 c-4 -3 -7 -11 -7 -17 0 -6 5 -5 12 2 6 6 9 14 7 17 -3 3
-9 2 -12 -2z"/>
<path d="M1340 10201 c0 -6 5 -13 10 -16 6 -3 10 1 10 9 0 9 -4 16 -10 16 -5
0 -10 -4 -10 -9z"/>
<path d="M6343 9472 c-159 -250 -405 -718 -513 -977 -23 -55 -71 -165 -107
-245 -96 -216 -81 -180 -186 -450 -57 -146 -143 -409 -202 -615 -25 -88 -48
-165 -50 -172 -4 -12 8 -29 120 -169 81 -102 113 -134 131 -134 8 0 24 35 40
88 53 177 139 406 254 677 83 197 438 900 506 1003 37 56 71 102 76 102 34 0
369 -625 543 -1014 136 -303 305 -763 305 -829 0 -45 41 -43 65 2 7 15 46 63
85 106 39 43 82 97 95 120 l24 41 -24 108 c-30 134 -155 503 -250 741 -75 186
-234 548 -325 740 -28 61 -59 128 -68 150 -62 159 -426 823 -452 825 -3 0 -33
-44 -67 -98z"/>
<path d="M7585 6522 c-78 -72 -168 -178 -186 -217 -22 -47 -23 -92 -4 -200 21
-118 41 -297 56 -497 10 -139 10 -210 1 -335 -24 -317 -66 -509 -172 -788 -38
-99 -74 -202 -81 -228 -6 -27 -15 -44 -18 -38 -4 5 -40 -47 -80 -117 -108
-185 -117 -199 -221 -334 l-95 -123 64 55 c76 66 233 243 319 360 35 47 71 94
81 105 34 38 111 158 155 244 138 267 251 681 287 1046 12 129 6 644 -10 745
-4 30 -16 120 -26 200 -9 80 -20 148 -24 152 -4 4 -24 -9 -46 -30z m-415
-2375 c0 -2 -10 -12 -22 -23 l-23 -19 19 23 c18 21 26 27 26 19z"/>
<path d="M5176 6523 c-3 -16 -18 -131 -33 -258 -35 -293 -39 -699 -10 -905 89
-629 327 -1141 722 -1558 59 -63 183 -174 170 -152 -5 8 -63 92 -130 185 -157
221 -202 294 -273 445 -65 136 -123 300 -171 480 -105 401 -118 732 -47 1245
9 61 19 151 22 202 7 91 6 93 -22 130 -82 109 -188 213 -218 213 -2 0 -7 -12
-10 -27z"/>
<path d="M10475 5869 c-130 -11 -290 -34 -440 -64 -66 -13 -205 -40 -310 -60
-189 -36 -233 -48 -455 -124 -283 -96 -396 -145 -576 -248 -390 -223 -725
-548 -949 -918 -136 -225 -199 -376 -300 -720 -54 -181 -75 -285 -74 -365 l1
-55 13 56 c30 123 127 376 199 519 179 354 381 603 671 826 309 238 491 343
700 405 44 13 86 29 93 36 8 7 23 18 34 24 31 17 298 88 413 110 394 75 925
113 1290 90 99 -6 246 -14 326 -18 141 -6 148 -5 200 19 30 14 104 60 164 103
134 94 242 167 398 269 64 42 117 80 117 85 0 9 -43 14 -255 31 -145 12 -1119
11 -1260 -1z"/>
<path d="M1180 5863 c-96 -5 -304 -24 -329 -30 -19 -5 17 -32 221 -167 316
-208 425 -279 468 -302 43 -22 109 -23 355 -5 349 26 867 -3 1280 -71 105 -17
217 -31 250 -30 67 1 259 -44 322 -76 21 -11 87 -36 147 -56 183 -61 523 -255
706 -403 102 -82 279 -268 367 -384 194 -254 316 -488 419 -795 63 -188 92
-263 80 -204 -2 14 -19 99 -36 190 -55 291 -115 473 -242 728 -146 294 -261
456 -478 672 -302 303 -607 497 -967 615 -46 15 -83 31 -83 35 0 11 -57 33
-72 27 -7 -2 -29 1 -48 8 -128 47 -298 88 -625 154 -239 48 -449 77 -645 91
-127 9 -942 11 -1090 3z"/>
<path d="M1330 3432 c0 -7 7 -15 15 -18 8 -4 12 -10 9 -15 -3 -5 -2 -9 3 -9 4
0 9 -185 11 -411 3 -403 2 -412 -18 -426 -19 -13 -19 -15 -3 -41 10 -15 23
-31 29 -37 6 -5 30 -36 54 -69 23 -32 50 -66 59 -75 9 -9 38 -43 65 -76 145
-180 426 -468 626 -644 548 -481 1086 -820 1755 -1106 98 -41 335 -131 365
-137 8 -2 18 -7 21 -11 3 -4 22 -9 42 -11 20 -2 42 -8 49 -14 7 -6 36 -16 63
-23 28 -6 56 -16 63 -22 6 -5 12 -7 12 -4 0 3 26 -3 58 -14 31 -11 67 -17 80
-14 14 3 21 1 20 -6 -2 -8 21 -13 69 -15 66 -4 71 -3 66 16 -3 10 -12 21 -22
23 -14 4 -14 5 1 6 15 1 17 20 20 188 3 186 -1 213 -33 213 -5 0 -9 7 -9 15 0
9 9 15 23 15 16 0 18 3 9 9 -10 6 -4 10 20 15 26 5 30 9 18 16 -8 5 -22 10
-30 10 -13 0 -13 -1 0 -10 13 -8 13 -10 -2 -10 -9 0 -20 4 -23 10 -3 5 -16 15
-28 20 -20 10 -21 10 -4 -3 16 -13 16 -15 1 -21 -25 -10 -41 -7 -24 5 12 8 9
10 -12 6 -34 -5 -36 6 -5 22 l22 11 -24 -6 c-14 -4 -21 -2 -17 4 6 9 -47 26
-71 23 -7 -1 -13 2 -13 7 0 6 -17 13 -37 17 -21 4 -59 16 -85 27 -26 11 -58
21 -72 22 -13 0 -22 4 -20 8 6 10 -64 30 -78 22 -7 -4 -10 -3 -5 1 4 5 -37 26
-90 47 -450 177 -910 431 -1308 722 -60 44 -112 83 -115 86 -3 3 -25 21 -50
40 -280 214 -647 575 -931 915 -107 128 -290 377 -386 525 -37 57 -49 67 -44
37 1 -5 -3 -6 -9 -2 -6 4 -7 13 -1 23 6 12 5 23 -4 35 -10 14 -14 15 -19 5 -3
-7 -4 -3 -2 9 2 13 -7 34 -25 55 -15 18 -28 27 -29 20z m30 -892 c0 -5 -5 -10
-11 -10 -5 0 -7 5 -4 10 3 6 8 10 11 10 2 0 4 -4 4 -10z m124 -158 c3 -5 -1
-9 -9 -9 -8 0 -12 4 -9 9 3 4 7 8 9 8 2 0 6 -4 9 -8z m3311 -1652 c-27 -12
-43 -12 -25 0 8 5 22 9 30 9 10 0 8 -3 -5 -9z"/>
<path d="M1318 3393 c7 -3 16 -2 19 1 4 3 -2 6 -13 5 -11 0 -14 -3 -6 -6z"/>
<path d="M4900 700 c0 -5 5 -10 10 -10 6 0 10 5 10 10 0 6 -4 10 -10 10 -5 0
-10 -4 -10 -10z"/>
<path d="M5080 660 c-8 -5 -10 -10 -5 -10 6 0 17 5 25 10 8 5 11 10 5 10 -5 0
-17 -5 -25 -10z"/>
<path d="M4895 235 c22 -7 33 -13 25 -14 -13 -1 -13 -3 -1 -10 12 -8 12 -10 0
-14 -8 -2 -3 -2 11 0 14 3 29 8 33 13 12 11 -50 40 -82 39 -22 0 -19 -3 14
-14z"/>
<path d="M4832 222 c-21 -6 -20 -8 13 -18 24 -8 38 -8 42 -1 3 6 1 7 -5 3 -6
-3 -13 -2 -16 3 -4 5 4 12 16 14 21 4 21 4 -2 5 -14 0 -35 -3 -48 -6z"/>
<path d="M5005 200 c3 -5 8 -10 11 -10 2 0 4 5 4 10 0 6 -5 10 -11 10 -5 0 -7
-4 -4 -10z"/>
<path d="M4960 186 c0 -2 7 -6 15 -10 8 -3 15 -1 15 4 0 6 -7 10 -15 10 -8 0
-15 -2 -15 -4z"/>
</g>
</svg>
